<svg width="16" height="16" viewBox="0 0 16 16" fill="none" xmlns="http://www.w3.org/2000/svg">
<path d="M11.9999 8.66659H8.66659V11.9999C8.66659 12.3666 8.36659 12.6666 7.99992 12.6666C7.63325 12.6666 7.33325 12.3666 7.33325 11.9999V8.66659H3.99992C3.63325 8.66659 3.33325 8.36659 3.33325 7.99992C3.33325 7.63325 3.63325 7.33325 3.99992 7.33325H7.33325V3.99992C7.33325 3.63325 7.63325 3.33325 7.99992 3.33325C8.36659 3.33325 8.66659 3.63325 8.66659 3.99992V7.33325H11.9999C12.3666 7.33325 12.6666 7.63325 12.6666 7.99992C12.6666 8.36659 12.3666 8.66659 11.9999 8.66659Z" fill="white"/>
</svg>
