<svg width="22" height="18" viewBox="0 0 22 18" fill="none" xmlns="http://www.w3.org/2000/svg">
<path fill-rule="evenodd" clip-rule="evenodd" d="M1.99991 0.00976562H19.9999C21.0999 0.00976562 21.9999 0.909766 21.9999 2.00977V15.9898C21.9999 17.0898 21.0999 17.9898 19.9999 17.9898H1.97991C0.889908 17.9898 -9.15527e-05 17.0998 -9.15527e-05 16.0098V12.9998C-9.15527e-05 12.4498 0.449908 11.9998 0.999908 11.9998C1.54991 11.9998 1.99991 12.4498 1.99991 12.9998V15.0198C1.99991 15.5698 2.44991 16.0198 2.99991 16.0198H18.9999C19.5499 16.0198 19.9999 15.5698 19.9999 15.0198V2.98977C19.9999 2.43977 19.5499 1.98977 18.9999 1.98977H2.99991C2.44991 1.98977 1.99991 2.43977 1.99991 2.98977V4.99977C1.99991 5.54977 1.54991 5.99977 0.999908 5.99977C0.449908 5.99977 -9.15527e-05 5.54977 -9.15527e-05 4.99977V2.00977C-9.15527e-05 0.909766 0.899908 0.00976562 1.99991 0.00976562ZM13.6399 9.35981L10.8499 12.1498C10.5399 12.4598 9.99991 12.2398 9.99991 11.7898V9.99981H0.999909C0.449908 9.99981 -9.15527e-05 9.54981 -9.15527e-05 8.99981C-9.15527e-05 8.44981 0.449908 7.99981 0.999909 7.99981H9.99991V6.20981C9.99991 5.75981 10.5399 5.53981 10.8499 5.85981L13.6399 8.64981C13.8399 8.84981 13.8399 9.15981 13.6399 9.35981Z" fill="#FF768E"/>
</svg>
